<?xml version="1.0" encoding="utf-8" standalone="no"?>
<!DOCTYPE svg PUBLIC "-//W3C//DTD SVG 1.1//EN" "http://www.w3.org/Graphics/SVG/1.1/DTD/svg11.dtd">
<svg version="1.1" width="28.32pt" height="28.32pt" viewBox="0 0 28.32 28.32" overflow="visible" xmlns="http://www.w3.org/2000/svg">
  <path d="M10.11925,14.19245 C10.99873,13.31269 11.81318,11.92905 12.14719,10.65714" stroke="#000000" stroke-width="0.24" fill="none" />
  <path d="M15.57285,23.12859 L17.82121,24.42668" stroke="#000000" stroke-width="0.24" fill="none" />
  <path d="M17.82121,3.996802 L17.82121,6.092652" stroke="#000000" stroke-width="0.24" fill="none" />
  <path d="M23.03405,13.30186 C23.12109,11.8679 22.28267,9.787329 21.21216,8.550735" stroke="#000000" stroke-width="0.24" fill="none" />
  <path d="M16.22618,17.74846 C15.03669,17.42538 13.44386,17.40329 12.17387,17.74034" stroke="#000000" stroke-width="0.24" fill="none" />
  <path d="M6.363816,18.72688 L3.51939,20.36911" stroke="#000000" stroke-width="0.24" fill="none" />
  <path d="M14.18426,14.21174 L11.37025,15.83641" stroke="#000000" stroke-width="0.24" fill="none" />
  <path d="M17.0281,15.85363 L14.18426,14.21174" stroke="#000000" stroke-width="0.24" fill="none" />
  <path d="M21.21218,8.550759 L21.21218,5.954582" stroke="#000000" stroke-width="0.24" fill="none" />
  <path d="M10.54729,22.3308 C11.74562,23.12317 13.96665,23.43736 15.57283,23.12857" stroke="#000000" stroke-width="0.24" fill="none" />
  <path d="M24.84913,20.36911 L22.01753,18.73428" stroke="#000000" stroke-width="0.24" fill="none" />
  <path d="M3.51939,16.16952 L5.349716,15.11278" stroke="#000000" stroke-width="0.24" fill="none" />
  <path d="M14.18426,10.92796 L14.18426,14.21174" stroke="#000000" stroke-width="0.24" fill="none" />
  <path d="M21.21218,22.4689 L19.41133,21.42918" stroke="#000000" stroke-width="0.24" fill="none" />
  <path d="M16.22569,10.67321 C16.54268,11.87527 17.33139,13.27955 18.26812,14.21172" stroke="#000000" stroke-width="0.24" fill="none" />
  <path d="M14.18426,1.897009 L14.18426,5.170165" stroke="#000000" stroke-width="0.24" fill="none" />
  <path d="M8.99424,6.990265 C7.703431,7.623847 6.306123,9.400596 5.767721,10.95585 L3.51939,12.25396" stroke="#000000" stroke-width="0.24" fill="none" />
  <path d="M7.156337,22.4689 L10.55408,24.43059" stroke="#000000" stroke-width="0.48" fill="none" />
  <path d="M19.41133,21.42918 L18.96383,21.17081" stroke="#000000" stroke-width="0.48" fill="none" />
  <path d="M5.349716,15.11278 L5.767745,14.87143" stroke="#000000" stroke-width="0.48" fill="none" />
  <path d="M3.51939,20.36911 L3.51939,16.16952" stroke="#000000" stroke-width="0.48" fill="none" />
  <path d="M17.82121,6.092652 L17.82121,6.592978" stroke="#000000" stroke-width="0.48" fill="none" />
  <path d="M5.767721,14.87141 C6.396015,16.04562 8.326656,15.89567 9.727042,14.5639 L10.11925,14.19245" stroke="#000000" stroke-width="0.48" fill="none" />
  <path d="M12.14719,10.65714 L12.37121,9.101103 C12.46187,7.352408 11.17252,6.177452 9.727042,6.691525 L8.99424,6.990265" stroke="#000000" stroke-width="0.48" fill="none" />
  <path d="M21.20808,5.952216 L17.82121,3.996802 L14.18426,1.897009" stroke="#000000" stroke-width="0.48" fill="none" />
  <path d="M7.156337,5.954582 L3.51939,8.054375" stroke="#000000" stroke-width="0.48" fill="none" />
  <path d="M12.17387,17.74034 L10.66483,18.33715 C9.105086,19.13299 8.732217,20.83707 9.900156,21.83186 L10.54729,22.3308" stroke="#000000" stroke-width="0.48" fill="none" />
  <path d="M24.84913,8.054375 L21.21218,5.954582" stroke="#000000" stroke-width="0.48" fill="none" />
  <path d="M22.60075,13.55202 C21.97246,12.37781 20.04182,12.52776 18.64143,13.85953 C17.19595,15.01455 15.90661,17.67832 15.99726,19.32233 C15.90661,21.07102 17.19595,22.24598 18.64143,21.73191 C20.04182,21.44665 21.97246,19.36729 22.60075,17.46758" stroke="#000000" stroke-width="0.48" fill="none" />
  <path d="M24.84913,20.36911 L14.18426,26.52647" stroke="#000000" stroke-width="0.48" fill="none" />
  <path d="M10.54729,21.83048 C11.87833,21.87347 12.7138,20.12651 12.26064,18.24785 C11.9831,16.41852 10.32089,13.97003 8.851801,13.22654 C7.382716,12.27368 5.7205,12.80281 5.442962,14.31166 C4.989807,15.66706 5.82527,18.37873 7.156313,19.8727" stroke="#000000" stroke-width="0.48" fill="none" />
  <path d="M3.51939,16.16952 L3.51939,8.054375" stroke="#000000" stroke-width="0.48" fill="none" />
  <path d="M7.156337,5.954582 L14.18426,1.897009" stroke="#000000" stroke-width="0.48" fill="none" />
  <path d="M18.9638,21.17079 C19.66655,20.03956 18.57137,18.44255 16.71783,17.89567 L16.22618,17.74846" stroke="#000000" stroke-width="0.48" fill="none" />
  <path d="M17.82118,6.592955 C16.49014,6.549967 15.65468,8.296926 16.10783,10.17558 L16.22569,10.67321" stroke="#000000" stroke-width="0.48" fill="none" />
  <path d="M14.18426,26.52647 L10.54731,24.42668" stroke="#000000" stroke-width="0.48" fill="none" />
  <path d="M18.26812,14.21172 L19.51667,15.19689 C20.98576,16.14975 22.64797,15.62063 22.92551,14.11177 L23.03405,13.30186" stroke="#000000" stroke-width="0.48" fill="none" />
  <path d="M7.156337,22.4689 L3.51939,20.36911" stroke="#000000" stroke-width="0.48" fill="none" />
  <path d="M24.84913,16.16952 L24.84913,20.36911" stroke="#000000" stroke-width="0.48" fill="none" />
  <path d="M24.84913,16.16952 L24.84913,8.054375" stroke="#000000" stroke-width="0.48" fill="none" />
  <path d="M9.404669,7.252646 C8.701919,8.38387 9.797097,9.980882 11.65064,10.52777 C13.37365,11.20208 16.32521,10.9868 17.70364,10.08628 C19.26339,9.290446 19.63626,7.58636 18.46832,6.591578 C17.52109,5.521435 14.75498,4.889133 12.79564,5.294867" stroke="#000000" stroke-width="0.48" fill="none" />
  <path d="M24.84913,20.36911 L14.18426,26.52647" stroke="#000000" stroke-width="0.24" fill="none" />
  <path d="M7.156337,5.954582 L14.18426,1.897009" stroke="#000000" stroke-width="0.24" fill="none" />
  <path d="M3.51939,20.36911 L3.51939,16.16952" stroke="#000000" stroke-width="0.24" fill="none" />
  <path d="M7.156337,22.4689 L3.51939,20.36911" stroke="#000000" stroke-width="0.24" fill="none" />
  <path d="M18.9638,21.17079 C19.66655,20.03956 18.57137,18.44255 16.71783,17.89567 L16.22618,17.74846" stroke="#000000" stroke-width="0.24" fill="none" />
  <path d="M12.14719,10.65714 L12.37121,9.101103 C12.46187,7.352408 11.17252,6.177452 9.727042,6.691525 L8.99424,6.990265" stroke="#000000" stroke-width="0.24" fill="none" />
  <path d="M7.156337,22.4689 L10.55408,24.43059" stroke="#000000" stroke-width="0.24" fill="none" />
  <path d="M5.349716,15.11278 L5.767745,14.87143" stroke="#000000" stroke-width="0.24" fill="none" />
  <path d="M17.82121,6.092652 L17.82121,6.592978" stroke="#000000" stroke-width="0.24" fill="none" />
  <path d="M21.20808,5.952216 L17.82121,3.996802" stroke="#000000" stroke-width="0.24" fill="none" />
  <path d="M11.37025,15.83641 L6.363816,18.72688" stroke="#000000" stroke-width="0.24" fill="none" />
  <path d="M22.01753,18.73428 L17.0281,15.85363" stroke="#000000" stroke-width="0.24" fill="none" />
  <path d="M17.82121,3.996802 L14.18426,1.897009" stroke="#000000" stroke-width="0.24" fill="none" />
  <path d="M5.767721,14.87141 C6.396015,16.04562 8.326656,15.89567 9.727042,14.5639 L10.11925,14.19245" stroke="#000000" stroke-width="0.24" fill="none" />
  <path d="M12.17387,17.74034 L10.66483,18.33715 C9.105086,19.13299 8.732217,20.83707 9.900156,21.83186 L10.54729,22.3308" stroke="#000000" stroke-width="0.24" fill="none" />
  <path d="M22.60077,17.46761 L24.84913,16.16952 L24.84913,8.054375" stroke="#000000" stroke-width="0.24" fill="none" />
  <path d="M7.156337,19.87272 L7.156337,22.4689" stroke="#000000" stroke-width="0.24" fill="none" />
  <path d="M19.41133,21.42918 L18.96383,21.17081" stroke="#000000" stroke-width="0.24" fill="none" />
  <path d="M24.84913,8.054375 L21.21218,5.954582" stroke="#000000" stroke-width="0.24" fill="none" />
  <path d="M14.18426,14.21174 L24.84913,8.054375" stroke="#000000" stroke-width="0.24" fill="none" />
  <path d="M22.60075,13.55202 C21.97246,12.37781 20.04182,12.52776 18.64143,13.85953 C17.19595,15.01455 15.90661,17.67832 15.99726,19.32233 C15.90661,21.07102 17.19595,22.24598 18.64143,21.73191 C20.04182,21.44665 21.97246,19.36729 22.60075,17.46758" stroke="#000000" stroke-width="0.24" fill="none" />
  <path d="M24.84913,12.25396 L22.60077,13.55205" stroke="#000000" stroke-width="0.24" fill="none" />
  <path d="M7.156337,5.954582 L9.404693,7.25267" stroke="#000000" stroke-width="0.24" fill="none" />
  <path d="M24.84913,16.16952 L24.84913,20.36911" stroke="#000000" stroke-width="0.24" fill="none" />
  <path d="M14.18426,14.21174 L14.18426,26.52647" stroke="#000000" stroke-width="0.24" fill="none" />
  <path d="M3.51939,16.16952 L3.51939,8.054375 L14.18426,14.21174" stroke="#000000" stroke-width="0.24" fill="none" />
  <path d="M12.79567,5.29489 L10.54731,3.996802" stroke="#000000" stroke-width="0.24" fill="none" />
  <path d="M9.404669,7.252646 C8.701919,8.38387 9.797097,9.980882 11.65064,10.52777 C13.37365,11.20208 16.32521,10.9868 17.70364,10.08628 C19.26339,9.290446 19.63626,7.58636 18.46832,6.591578 C17.52109,5.521435 14.75498,4.889133 12.79564,5.294867" stroke="#000000" stroke-width="0.24" fill="none" />
  <path d="M10.54729,21.83048 C11.87833,21.87347 12.7138,20.12651 12.26064,18.24785 C11.9831,16.41852 10.32089,13.97003 8.851801,13.22654 C7.382716,12.27368 5.7205,12.80281 5.442962,14.31166 C4.989807,15.66706 5.82527,18.37873 7.156313,19.8727" stroke="#000000" stroke-width="0.24" fill="none" />
  <path d="M10.54731,24.42668 L10.54731,21.8305" stroke="#000000" stroke-width="0.24" fill="none" />
  <path d="M14.18426,26.52647 L10.54731,24.42668" stroke="#000000" stroke-width="0.24" fill="none" />
  <path d="M18.26812,14.21172 L19.51667,15.19689 C20.98576,16.14975 22.64797,15.62063 22.92551,14.11177 L23.03405,13.30186" stroke="#000000" stroke-width="0.24" fill="none" />
  <path d="M7.156337,5.954582 L3.51939,8.054375" stroke="#000000" stroke-width="0.24" fill="none" />
  <path d="M14.18426,5.170165 L14.18426,10.92796" stroke="#000000" stroke-width="0.24" fill="none" />
  <path d="M17.82118,6.592955 C16.49014,6.549967 15.65468,8.296926 16.10783,10.17558 L16.22569,10.67321" stroke="#000000" stroke-width="0.24" fill="none" />
</svg>